<?xml version="1.0" encoding="UTF-8"?>
<svg version="1.1" xmlns="http://www.w3.org/2000/svg" width="32" height="32">
<path d="M0 0 C4.8846525 2.26787438 7.73212562 5.1153475 10 10 C10.75381535 15.5997712 10.77303575 20.33499991 8.375 25.5 C3.80134327 30.3143755 0.6912538 32.25156236 -6 32.5 C-12.6912538 32.25156236 -15.80134327 30.3143755 -20.375 25.5 C-22.77303575 20.33499991 -22.75381535 15.5997712 -22 10 C-17.52212837 0.3553534 -9.85292056 -1.32635469 0 0 Z " fill="#FF2248" transform="translate(22,0)"/>
<path d="M0 0 C0.66 0.33 1.32 0.66 2 1 C2 1.99 2 2.98 2 4 C5.3 4 8.6 4 12 4 C12.33 2.68 12.66 1.36 13 0 C13.66 0.33 14.32 0.66 15 1 C14.125 5.875 14.125 5.875 13 7 C11.02380553 7.12514928 9.04261827 7.1757276 7.0625 7.1875 C5.98097656 7.20167969 4.89945313 7.21585938 3.78515625 7.23046875 C1 7 1 7 -1 5 C-0.625 2.375 -0.625 2.375 0 0 Z " fill="#FFD5DD" transform="translate(9,18)"/>
<path d="M0 0 C0.66 0 1.32 0 2 0 C2.33 2.31 2.66 4.62 3 7 C3.99 6.67 4.98 6.34 6 6 C4.95125002 8.62187494 4.35068687 9.79371361 1.875 11.25 C1.25625 11.4975 0.6375 11.745 0 12 C-1.37562854 10.71034824 -2.70766393 9.37310707 -4 8 C-4 7.34 -4 6.68 -4 6 C-3.01 6.33 -2.02 6.66 -1 7 C-0.67 4.69 -0.34 2.38 0 0 Z " fill="#FFF3F5" transform="translate(15,7)"/>
<path d="M0 0 C0.66 0.33 1.32 0.66 2 1 C1.67 2.65 1.34 4.3 1 6 C-2.96 5.67 -6.92 5.34 -11 5 C-11 4.67 -11 4.34 -11 4 C-7.7 4 -4.4 4 -1 4 C-0.67 2.68 -0.34 1.36 0 0 Z " fill="#FFA8B7" transform="translate(22,18)"/>
</svg>
